<?xml version="1.0" encoding="UTF-8" standalone="no"?>
<!DOCTYPE svg PUBLIC "-//W3C//DTD SVG 1.1//EN"
 "http://www.w3.org/Graphics/SVG/1.1/DTD/svg11.dtd">
<!-- Generated by graphviz version 8.1.0 (20230707.0739)
 -->
<!-- Pages: 1 -->
<svg width="62pt" height="116pt"
 viewBox="0.00 0.00 62.00 116.00" xmlns="http://www.w3.org/2000/svg" xmlns:xlink="http://www.w3.org/1999/xlink">
<g id="graph0" class="graph" transform="scale(1 1) rotate(0) translate(4 112)">
<polygon fill="white" stroke="none" points="-4,4 -4,-112 58,-112 58,4 -4,4"/>
<!-- F -->
<g id="node1" class="node">
<title>F</title>
<ellipse fill="none" stroke="black" cx="27" cy="-90" rx="27" ry="18"/>
<text text-anchor="middle" x="27" y="-84.58" font-family="Times New Roman,serif" font-size="14.00">F</text>
</g>
<!-- E -->
<g id="node2" class="node">
<title>E</title>
<ellipse fill="none" stroke="black" cx="27" cy="-18" rx="27" ry="18"/>
<text text-anchor="middle" x="27" y="-12.57" font-family="Times New Roman,serif" font-size="14.00">E</text>
</g>
<!-- F&#45;&gt;E -->
<g id="edge1" class="edge">
<title>F&#45;&gt;E</title>
<path fill="none" stroke="black" d="M21.12,-72.05C20.31,-64.4 20.06,-55.16 20.39,-46.56"/>
<polygon fill="black" stroke="black" points="23.93,-47.01 21.14,-36.79 16.95,-46.52 23.93,-47.01"/>
</g>
<!-- E&#45;&gt;F -->
<g id="edge2" class="edge">
<title>E&#45;&gt;F</title>
<path fill="none" stroke="black" d="M32.86,-35.79C33.68,-43.42 33.93,-52.65 33.62,-61.27"/>
<polygon fill="black" stroke="black" points="30.07,-60.84 32.88,-71.05 37.06,-61.32 30.07,-60.84"/>
</g>
</g>
</svg>
