<?xml version="1.0" encoding="UTF-8" standalone="no"?>
<!DOCTYPE svg PUBLIC "-//W3C//DTD SVG 1.1//EN"
 "http://www.w3.org/Graphics/SVG/1.1/DTD/svg11.dtd">
<!-- Generated by graphviz version 8.1.0 (20230707.0739)
 -->
<!-- Pages: 1 -->
<svg width="172pt" height="260pt"
 viewBox="0.00 0.00 172.00 260.00" xmlns="http://www.w3.org/2000/svg" xmlns:xlink="http://www.w3.org/1999/xlink">
<g id="graph0" class="graph" transform="scale(1 1) rotate(0) translate(4 256)">
<polygon fill="white" stroke="none" points="-4,4 -4,-256 168,-256 168,4 -4,4"/>
<!-- B -->
<g id="node1" class="node">
<title>B</title>
<ellipse fill="none" stroke="black" cx="54" cy="-234" rx="27" ry="18"/>
<text text-anchor="middle" x="54" y="-228.57" font-family="Times New Roman,serif" font-size="14.00">B</text>
</g>
<!-- C -->
<g id="node2" class="node">
<title>C</title>
<ellipse fill="none" stroke="black" cx="27" cy="-162" rx="27" ry="18"/>
<text text-anchor="middle" x="27" y="-156.57" font-family="Times New Roman,serif" font-size="14.00">C</text>
</g>
<!-- B&#45;&gt;C -->
<g id="edge1" class="edge">
<title>B&#45;&gt;C</title>
<path fill="none" stroke="black" d="M47.46,-216.05C44.45,-208.23 40.79,-198.75 37.41,-189.98"/>
<polygon fill="black" stroke="black" points="40.34,-188.86 33.48,-180.79 33.81,-191.38 40.34,-188.86"/>
</g>
<!-- D -->
<g id="node3" class="node">
<title>D</title>
<ellipse fill="none" stroke="black" cx="137" cy="-162" rx="27" ry="18"/>
<text text-anchor="middle" x="137" y="-156.57" font-family="Times New Roman,serif" font-size="14.00">D</text>
</g>
<!-- B&#45;&gt;D -->
<g id="edge2" class="edge">
<title>B&#45;&gt;D</title>
<path fill="none" stroke="black" d="M70.4,-219.17C82.33,-209.1 98.71,-195.29 112.23,-183.89"/>
<polygon fill="black" stroke="black" points="114.25,-185.92 119.64,-176.8 109.74,-180.57 114.25,-185.92"/>
</g>
<!-- A -->
<g id="node4" class="node">
<title>A</title>
<ellipse fill="none" stroke="black" cx="40" cy="-18" rx="27" ry="18"/>
<text text-anchor="middle" x="40" y="-12.57" font-family="Times New Roman,serif" font-size="14.00">A</text>
</g>
<!-- C&#45;&gt;A -->
<g id="edge3" class="edge">
<title>C&#45;&gt;A</title>
<path fill="none" stroke="black" d="M28.59,-143.59C30.8,-119.5 34.8,-75.75 37.43,-47.03"/>
<polygon fill="black" stroke="black" points="41.01,-47.39 38.43,-37.11 34.04,-46.75 41.01,-47.39"/>
</g>
<!-- E -->
<g id="node5" class="node">
<title>E</title>
<ellipse fill="none" stroke="black" cx="134" cy="-90" rx="27" ry="18"/>
<text text-anchor="middle" x="134" y="-84.58" font-family="Times New Roman,serif" font-size="14.00">E</text>
</g>
<!-- D&#45;&gt;E -->
<g id="edge4" class="edge">
<title>D&#45;&gt;E</title>
<path fill="none" stroke="black" d="M136.26,-143.7C135.94,-136.24 135.56,-127.32 135.2,-118.97"/>
<polygon fill="black" stroke="black" points="138.66,-118.95 134.73,-109.1 131.66,-119.25 138.66,-118.95"/>
</g>
<!-- A&#45;&gt;B -->
<g id="edge7" class="edge">
<title>A&#45;&gt;B</title>
<path fill="none" stroke="black" d="M44.95,-35.85C52.96,-65.07 67.46,-127.11 63,-180 62.31,-188.22 61.02,-197.08 59.63,-205.15"/>
<polygon fill="black" stroke="black" points="56.02,-204.44 57.65,-214.91 62.91,-205.71 56.02,-204.44"/>
</g>
<!-- F -->
<g id="node6" class="node">
<title>F</title>
<ellipse fill="none" stroke="black" cx="122" cy="-18" rx="27" ry="18"/>
<text text-anchor="middle" x="122" y="-12.57" font-family="Times New Roman,serif" font-size="14.00">F</text>
</g>
<!-- E&#45;&gt;F -->
<g id="edge5" class="edge">
<title>E&#45;&gt;F</title>
<path fill="none" stroke="black" d="M125.42,-72.76C123.25,-65.13 121.37,-55.79 120.18,-47.06"/>
<polygon fill="black" stroke="black" points="123.56,-46.71 119.04,-37.12 116.6,-47.43 123.56,-46.71"/>
</g>
<!-- F&#45;&gt;E -->
<g id="edge6" class="edge">
<title>F&#45;&gt;E</title>
<path fill="none" stroke="black" d="M130.56,-35.14C132.72,-42.75 134.6,-52.05 135.8,-60.76"/>
<polygon fill="black" stroke="black" points="132.42,-61.12 136.95,-70.7 139.38,-60.38 132.42,-61.12"/>
</g>
</g>
</svg>
