<?xml version="1.0" encoding="UTF-8" standalone="no"?>
<!DOCTYPE svg PUBLIC "-//W3C//DTD SVG 1.1//EN"
 "http://www.w3.org/Graphics/SVG/1.1/DTD/svg11.dtd">
<!-- Generated by graphviz version 8.1.0 (20230707.0739)
 -->
<!-- Pages: 1 -->
<svg width="143pt" height="332pt"
 viewBox="0.00 0.00 143.00 332.00" xmlns="http://www.w3.org/2000/svg" xmlns:xlink="http://www.w3.org/1999/xlink">
<g id="graph0" class="graph" transform="scale(1 1) rotate(0) translate(4 328)">
<polygon fill="white" stroke="none" points="-4,4 -4,-328 139,-328 139,4 -4,4"/>
<!-- F -->
<g id="node1" class="node">
<title>F</title>
<ellipse fill="none" stroke="black" cx="35" cy="-90" rx="27" ry="18"/>
<text text-anchor="middle" x="35" y="-84.58" font-family="Times New Roman,serif" font-size="14.00">F</text>
</g>
<!-- E -->
<g id="node2" class="node">
<title>E</title>
<ellipse fill="none" stroke="black" cx="62" cy="-18" rx="27" ry="18"/>
<text text-anchor="middle" x="62" y="-12.57" font-family="Times New Roman,serif" font-size="14.00">E</text>
</g>
<!-- F&#45;&gt;E -->
<g id="edge1" class="edge">
<title>F&#45;&gt;E</title>
<path fill="none" stroke="black" d="M35.76,-71.7C38.09,-63.46 41.75,-53.45 45.69,-44.37"/>
<polygon fill="black" stroke="black" points="49.17,-46.21 50.22,-35.67 42.82,-43.26 49.17,-46.21"/>
</g>
<!-- E&#45;&gt;F -->
<g id="edge8" class="edge">
<title>E&#45;&gt;F</title>
<path fill="none" stroke="black" d="M61.2,-36.46C58.85,-44.72 55.19,-54.73 51.24,-63.78"/>
<polygon fill="black" stroke="black" points="47.78,-61.92 46.71,-72.46 54.12,-64.89 47.78,-61.92"/>
</g>
<!-- A -->
<g id="node3" class="node">
<title>A</title>
<ellipse fill="none" stroke="black" cx="27" cy="-162" rx="27" ry="18"/>
<text text-anchor="middle" x="27" y="-156.57" font-family="Times New Roman,serif" font-size="14.00">A</text>
</g>
<!-- A&#45;&gt;F -->
<g id="edge3" class="edge">
<title>A&#45;&gt;F</title>
<path fill="none" stroke="black" d="M28.98,-143.7C29.83,-136.24 30.85,-127.32 31.8,-118.97"/>
<polygon fill="black" stroke="black" points="35.39,-119.44 33.05,-109.1 28.43,-118.64 35.39,-119.44"/>
</g>
<!-- B -->
<g id="node4" class="node">
<title>B</title>
<ellipse fill="none" stroke="black" cx="35" cy="-306" rx="27" ry="18"/>
<text text-anchor="middle" x="35" y="-300.57" font-family="Times New Roman,serif" font-size="14.00">B</text>
</g>
<!-- A&#45;&gt;B -->
<g id="edge2" class="edge">
<title>A&#45;&gt;B</title>
<path fill="none" stroke="black" d="M26.23,-180.42C25.62,-198.39 25.14,-227.19 27,-252 27.62,-260.2 28.76,-269.05 29.99,-277.13"/>
<polygon fill="black" stroke="black" points="26.68,-277.58 31.75,-286.89 33.59,-276.45 26.68,-277.58"/>
</g>
<!-- C -->
<g id="node5" class="node">
<title>C</title>
<ellipse fill="none" stroke="black" cx="63" cy="-234" rx="27" ry="18"/>
<text text-anchor="middle" x="63" y="-228.57" font-family="Times New Roman,serif" font-size="14.00">C</text>
</g>
<!-- B&#45;&gt;C -->
<g id="edge4" class="edge">
<title>B&#45;&gt;C</title>
<path fill="none" stroke="black" d="M41.64,-288.41C44.84,-280.39 48.77,-270.57 52.38,-261.54"/>
<polygon fill="black" stroke="black" points="55.95,-263.05 56.41,-252.47 49.45,-260.45 55.95,-263.05"/>
</g>
<!-- D -->
<g id="node6" class="node">
<title>D</title>
<ellipse fill="none" stroke="black" cx="108" cy="-162" rx="27" ry="18"/>
<text text-anchor="middle" x="108" y="-156.57" font-family="Times New Roman,serif" font-size="14.00">D</text>
</g>
<!-- B&#45;&gt;D -->
<g id="edge5" class="edge">
<title>B&#45;&gt;D</title>
<path fill="none" stroke="black" d="M55.42,-293.97C70.2,-284.81 89.22,-270.33 99,-252 108.94,-233.36 110.86,-209.41 110.47,-191.05"/>
<polygon fill="black" stroke="black" points="113.93,-191 109.97,-181.17 106.94,-191.32 113.93,-191"/>
</g>
<!-- C&#45;&gt;A -->
<g id="edge6" class="edge">
<title>C&#45;&gt;A</title>
<path fill="none" stroke="black" d="M54.65,-216.76C50.38,-208.46 45.08,-198.15 40.27,-188.79"/>
<polygon fill="black" stroke="black" points="42.99,-187.44 35.3,-180.15 36.77,-190.64 42.99,-187.44"/>
</g>
<!-- D&#45;&gt;E -->
<g id="edge7" class="edge">
<title>D&#45;&gt;E</title>
<path fill="none" stroke="black" d="M102.54,-144.15C94.69,-119.92 80.13,-74.96 70.76,-46.05"/>
<polygon fill="black" stroke="black" points="73.86,-45.26 67.45,-36.82 67.2,-47.42 73.86,-45.26"/>
</g>
</g>
</svg>
