<?xml version="1.0" encoding="UTF-8" standalone="no"?>
<!DOCTYPE svg PUBLIC "-//W3C//DTD SVG 1.1//EN"
 "http://www.w3.org/Graphics/SVG/1.1/DTD/svg11.dtd">
<!-- Generated by graphviz version 8.1.0 (20230707.0739)
 -->
<!-- Pages: 1 -->
<svg width="171pt" height="260pt"
 viewBox="0.00 0.00 171.00 260.00" xmlns="http://www.w3.org/2000/svg" xmlns:xlink="http://www.w3.org/1999/xlink">
<g id="graph0" class="graph" transform="scale(1 1) rotate(0) translate(4 256)">
<polygon fill="white" stroke="none" points="-4,4 -4,-256 167,-256 167,4 -4,4"/>
<!-- D -->
<g id="node1" class="node">
<title>D</title>
<ellipse fill="none" stroke="black" cx="136" cy="-162" rx="27" ry="18"/>
<text text-anchor="middle" x="136" y="-156.57" font-family="Times New Roman,serif" font-size="14.00">D</text>
</g>
<!-- E -->
<g id="node2" class="node">
<title>E</title>
<ellipse fill="none" stroke="black" cx="125" cy="-90" rx="27" ry="18"/>
<text text-anchor="middle" x="125" y="-84.58" font-family="Times New Roman,serif" font-size="14.00">E</text>
</g>
<!-- D&#45;&gt;E -->
<g id="edge1" class="edge">
<title>D&#45;&gt;E</title>
<path fill="none" stroke="black" d="M133.28,-143.7C132.11,-136.24 130.71,-127.32 129.39,-118.97"/>
<polygon fill="black" stroke="black" points="132.7,-118.44 127.69,-109.1 125.78,-119.53 132.7,-118.44"/>
</g>
<!-- F -->
<g id="node3" class="node">
<title>F</title>
<ellipse fill="none" stroke="black" cx="106" cy="-18" rx="27" ry="18"/>
<text text-anchor="middle" x="106" y="-12.57" font-family="Times New Roman,serif" font-size="14.00">F</text>
</g>
<!-- E&#45;&gt;F -->
<g id="edge2" class="edge">
<title>E&#45;&gt;F</title>
<path fill="none" stroke="black" d="M114.93,-73.12C111.94,-65.4 109.08,-55.9 106.98,-47.02"/>
<polygon fill="black" stroke="black" points="110.21,-46.39 104.78,-37.29 103.36,-47.79 110.21,-46.39"/>
</g>
<!-- F&#45;&gt;E -->
<g id="edge3" class="edge">
<title>F&#45;&gt;E</title>
<path fill="none" stroke="black" d="M116.17,-35.14C119.13,-42.84 121.97,-52.26 124.04,-61.06"/>
<polygon fill="black" stroke="black" points="120.79,-61.6 126.22,-70.7 127.64,-60.2 120.79,-61.6"/>
</g>
<!-- A -->
<g id="node4" class="node">
<title>A</title>
<ellipse fill="none" stroke="black" cx="27" cy="-18" rx="27" ry="18"/>
<text text-anchor="middle" x="27" y="-12.57" font-family="Times New Roman,serif" font-size="14.00">A</text>
</g>
<!-- B -->
<g id="node5" class="node">
<title>B</title>
<ellipse fill="none" stroke="black" cx="36" cy="-234" rx="27" ry="18"/>
<text text-anchor="middle" x="36" y="-228.57" font-family="Times New Roman,serif" font-size="14.00">B</text>
</g>
<!-- A&#45;&gt;B -->
<g id="edge4" class="edge">
<title>A&#45;&gt;B</title>
<path fill="none" stroke="black" d="M26.29,-36.43C25.27,-66 23.93,-127.89 28,-180 28.64,-188.2 29.79,-197.05 31.03,-205.13"/>
<polygon fill="black" stroke="black" points="27.72,-205.58 32.78,-214.89 34.62,-204.45 27.72,-205.58"/>
</g>
<!-- B&#45;&gt;D -->
<g id="edge6" class="edge">
<title>B&#45;&gt;D</title>
<path fill="none" stroke="black" d="M53.88,-220.49C69.28,-209.7 91.74,-193.98 109.28,-181.7"/>
<polygon fill="black" stroke="black" points="110.75,-184.24 116.94,-175.64 106.74,-178.51 110.75,-184.24"/>
</g>
<!-- C -->
<g id="node6" class="node">
<title>C</title>
<ellipse fill="none" stroke="black" cx="64" cy="-162" rx="27" ry="18"/>
<text text-anchor="middle" x="64" y="-156.57" font-family="Times New Roman,serif" font-size="14.00">C</text>
</g>
<!-- B&#45;&gt;C -->
<g id="edge5" class="edge">
<title>B&#45;&gt;C</title>
<path fill="none" stroke="black" d="M42.64,-216.41C45.84,-208.39 49.77,-198.57 53.38,-189.54"/>
<polygon fill="black" stroke="black" points="56.95,-191.05 57.41,-180.47 50.45,-188.45 56.95,-191.05"/>
</g>
<!-- C&#45;&gt;A -->
<g id="edge7" class="edge">
<title>C&#45;&gt;A</title>
<path fill="none" stroke="black" d="M59.54,-143.87C53.26,-119.78 41.75,-75.6 34.24,-46.77"/>
<polygon fill="black" stroke="black" points="37.39,-45.98 31.48,-37.19 30.61,-47.75 37.39,-45.98"/>
</g>
</g>
</svg>
