<?xml version="1.0" encoding="UTF-8" standalone="no"?>
<!DOCTYPE svg PUBLIC "-//W3C//DTD SVG 1.1//EN"
 "http://www.w3.org/Graphics/SVG/1.1/DTD/svg11.dtd">
<!-- Generated by graphviz version 8.1.0 (20230707.0739)
 -->
<!-- Pages: 1 -->
<svg width="178pt" height="332pt"
 viewBox="0.00 0.00 178.00 332.00" xmlns="http://www.w3.org/2000/svg" xmlns:xlink="http://www.w3.org/1999/xlink">
<g id="graph0" class="graph" transform="scale(1 1) rotate(0) translate(4 328)">
<polygon fill="white" stroke="none" points="-4,4 -4,-328 174,-328 174,4 -4,4"/>
<!-- D -->
<g id="node1" class="node">
<title>D</title>
<ellipse fill="none" stroke="black" cx="57" cy="-162" rx="27" ry="18"/>
<text text-anchor="middle" x="57" y="-156.57" font-family="Times New Roman,serif" font-size="14.00">D</text>
</g>
<!-- E -->
<g id="node2" class="node">
<title>E</title>
<ellipse fill="none" stroke="black" cx="57" cy="-90" rx="27" ry="18"/>
<text text-anchor="middle" x="57" y="-84.58" font-family="Times New Roman,serif" font-size="14.00">E</text>
</g>
<!-- D&#45;&gt;E -->
<g id="edge1" class="edge">
<title>D&#45;&gt;E</title>
<path fill="none" stroke="black" d="M57,-143.7C57,-136.24 57,-127.32 57,-118.97"/>
<polygon fill="black" stroke="black" points="60.5,-119.1 57,-109.1 53.5,-119.1 60.5,-119.1"/>
</g>
<!-- F -->
<g id="node3" class="node">
<title>F</title>
<ellipse fill="none" stroke="black" cx="27" cy="-18" rx="27" ry="18"/>
<text text-anchor="middle" x="27" y="-12.57" font-family="Times New Roman,serif" font-size="14.00">F</text>
</g>
<!-- E&#45;&gt;F -->
<g id="edge2" class="edge">
<title>E&#45;&gt;F</title>
<path fill="none" stroke="black" d="M44.81,-73.81C40.37,-65.75 35.72,-55.59 32.07,-46.22"/>
<polygon fill="black" stroke="black" points="35.12,-45.36 28.44,-37.13 28.53,-47.72 35.12,-45.36"/>
</g>
<!-- F&#45;&gt;E -->
<g id="edge3" class="edge">
<title>F&#45;&gt;E</title>
<path fill="none" stroke="black" d="M39.2,-34.2C43.61,-42.22 48.24,-52.31 51.88,-61.64"/>
<polygon fill="black" stroke="black" points="48.82,-62.47 55.5,-70.7 55.41,-60.1 48.82,-62.47"/>
</g>
<!-- A -->
<g id="node4" class="node">
<title>A</title>
<ellipse fill="none" stroke="black" cx="27" cy="-306" rx="27" ry="18"/>
<text text-anchor="middle" x="27" y="-300.57" font-family="Times New Roman,serif" font-size="14.00">A</text>
</g>
<!-- A&#45;&gt;F -->
<g id="edge5" class="edge">
<title>A&#45;&gt;F</title>
<path fill="none" stroke="black" d="M25.5,-287.83C24.64,-277.46 23.62,-263.98 23,-252 18.88,-172.1 16.49,-151.88 21,-72 21.46,-63.83 22.32,-54.99 23.24,-46.91"/>
<polygon fill="black" stroke="black" points="26.82,-47.5 24.56,-37.14 19.87,-46.64 26.82,-47.5"/>
</g>
<!-- B -->
<g id="node5" class="node">
<title>B</title>
<ellipse fill="none" stroke="black" cx="59" cy="-234" rx="27" ry="18"/>
<text text-anchor="middle" x="59" y="-228.57" font-family="Times New Roman,serif" font-size="14.00">B</text>
</g>
<!-- A&#45;&gt;B -->
<g id="edge4" class="edge">
<title>A&#45;&gt;B</title>
<path fill="none" stroke="black" d="M34.58,-288.41C38.29,-280.3 42.84,-270.35 47,-261.25"/>
<polygon fill="black" stroke="black" points="50.5,-263.02 51.47,-252.47 44.13,-260.11 50.5,-263.02"/>
</g>
<!-- B&#45;&gt;D -->
<g id="edge7" class="edge">
<title>B&#45;&gt;D</title>
<path fill="none" stroke="black" d="M58.51,-215.7C58.29,-208.24 58.04,-199.32 57.8,-190.97"/>
<polygon fill="black" stroke="black" points="61.27,-191 57.49,-181.1 54.28,-191.2 61.27,-191"/>
</g>
<!-- C -->
<g id="node6" class="node">
<title>C</title>
<ellipse fill="none" stroke="black" cx="143" cy="-90" rx="27" ry="18"/>
<text text-anchor="middle" x="143" y="-84.58" font-family="Times New Roman,serif" font-size="14.00">C</text>
</g>
<!-- B&#45;&gt;C -->
<g id="edge6" class="edge">
<title>B&#45;&gt;C</title>
<path fill="none" stroke="black" d="M69.36,-217.38C76.22,-206.9 85.34,-192.74 93,-180 105.65,-158.95 119.26,-134.61 129.08,-116.71"/>
<polygon fill="black" stroke="black" points="132.53,-118.7 134.25,-108.24 126.38,-115.34 132.53,-118.7"/>
</g>
<!-- C&#45;&gt;A -->
<g id="edge8" class="edge">
<title>C&#45;&gt;A</title>
<path fill="none" stroke="black" d="M141.31,-108.46C137.56,-139.72 126.26,-206.24 95,-252 85.05,-266.56 69.86,-278.95 56.36,-288.07"/>
<polygon fill="black" stroke="black" points="54.88,-285.5 48.36,-293.86 58.67,-291.39 54.88,-285.5"/>
</g>
</g>
</svg>
